<?xml version="1.0" encoding="utf-8"?>
<!-- Generator: Adobe Illustrator 20.0.0, SVG Export Plug-In . SVG Version: 6.00 Build 0)  -->
<svg version="1.1" id="Capa_1" xmlns="http://www.w3.org/2000/svg" xmlns:xlink="http://www.w3.org/1999/xlink" x="0px" y="0px"
	 viewBox="0 0 100 100" style="enable-background:new 0 0 100 100;" xml:space="preserve">
<style type="text/css">
	.st0{clip-path:url(#SVGID_2_);fill:#222222;}
	.st1{clip-path:url(#SVGID_4_);fill:#222222;}
	.st2{clip-path:url(#SVGID_6_);fill:#FFFFFF;}
	.st3{clip-path:url(#SVGID_8_);fill:#E52628;}
	.st4{clip-path:url(#SVGID_10_);fill:#222222;}
	.st5{clip-path:url(#SVGID_12_);fill:#FFFFFF;}
	.st6{clip-path:url(#SVGID_14_);fill:#FFFFFF;}
	.st7{clip-path:url(#SVGID_16_);fill:#222222;}
	.st8{clip-path:url(#SVGID_18_);fill:#020203;}
	.st9{clip-path:url(#SVGID_20_);enable-background:new    ;}
	.st10{clip-path:url(#SVGID_22_);}
	.st11{clip-path:url(#SVGID_24_);}
	.st12{clip-path:url(#SVGID_26_);fill:#222222;}
	.st13{clip-path:url(#SVGID_28_);fill:#020203;}
	.st14{clip-path:url(#SVGID_30_);fill:#020203;}
	.st15{clip-path:url(#SVGID_32_);enable-background:new    ;}
	.st16{clip-path:url(#SVGID_34_);}
	.st17{clip-path:url(#SVGID_36_);}
	.st18{clip-path:url(#SVGID_38_);fill:#222222;}
	.st19{clip-path:url(#SVGID_40_);fill:#020203;}
	.st20{clip-path:url(#SVGID_42_);fill:#020203;}
	.st21{clip-path:url(#SVGID_44_);fill:#020203;}
	.st22{clip-path:url(#SVGID_46_);fill:#020203;}
	.st23{clip-path:url(#SVGID_48_);fill:#020203;}
	.st24{clip-path:url(#SVGID_50_);fill:#020203;}
	.st25{clip-path:url(#SVGID_52_);enable-background:new    ;}
	.st26{clip-path:url(#SVGID_54_);}
	.st27{clip-path:url(#SVGID_56_);}
	.st28{clip-path:url(#SVGID_58_);fill:#222222;}
	.st29{clip-path:url(#SVGID_60_);fill:#020203;}
	.st30{clip-path:url(#SVGID_62_);fill:#020203;}
	.st31{clip-path:url(#SVGID_64_);fill:#020203;}
	.st32{clip-path:url(#SVGID_66_);fill:#020203;}
	.st33{clip-path:url(#SVGID_68_);fill:#222222;}
	.st34{clip-path:url(#SVGID_70_);fill:#222222;}
	.st35{clip-path:url(#SVGID_72_);fill:#222222;}
	.st36{clip-path:url(#SVGID_74_);fill:#222222;}
	.st37{clip-path:url(#SVGID_76_);fill:#222222;}
	.st38{clip-path:url(#SVGID_78_);fill:#222222;}
	.st39{clip-path:url(#SVGID_80_);fill:#222222;}
	.st40{clip-path:url(#SVGID_82_);fill:#222222;}
	.st41{clip-path:url(#SVGID_84_);fill:#222222;}
	.st42{clip-path:url(#SVGID_86_);fill:#222222;}
	.st43{clip-path:url(#SVGID_88_);fill:#222222;}
	.st44{clip-path:url(#SVGID_90_);fill:#222222;}
	.st45{clip-path:url(#SVGID_92_);fill:#222222;}
	.st46{clip-path:url(#SVGID_94_);fill:#222222;}
	.st47{clip-path:url(#SVGID_96_);fill:#222222;}
	.st48{clip-path:url(#SVGID_98_);fill:#222222;}
	.st49{clip-path:url(#SVGID_100_);fill:#222222;}
	.st50{clip-path:url(#SVGID_102_);fill:#222222;}
	.st51{clip-path:url(#SVGID_104_);fill:#222222;}
	.st52{fill:none;stroke:#FFFFFF;stroke-width:0.3;stroke-linecap:round;stroke-linejoin:round;stroke-miterlimit:10;}
	.st53{clip-path:url(#SVGID_106_);fill:#222222;}
	.st54{clip-path:url(#SVGID_108_);fill:#222222;}
	.st55{clip-path:url(#SVGID_110_);fill:#222222;}
	.st56{clip-path:url(#SVGID_112_);fill:#222222;}
	.st57{clip-path:url(#SVGID_114_);fill:#222222;}
	.st58{clip-path:url(#SVGID_116_);fill:#222222;}
	.st59{clip-path:url(#SVGID_118_);fill:#222222;}
	.st60{clip-path:url(#SVGID_120_);fill:#222222;}
	.st61{clip-path:url(#SVGID_122_);fill:#222222;}
	.st62{clip-path:url(#SVGID_124_);fill:#222222;}
	.st63{clip-path:url(#SVGID_126_);fill:#222222;}
	.st64{clip-path:url(#SVGID_128_);fill:#222222;}
	.st65{clip-path:url(#SVGID_130_);fill:#222222;}
	.st66{clip-path:url(#SVGID_132_);fill:#222222;}
	.st67{clip-path:url(#SVGID_134_);fill:#222222;}
	.st68{clip-path:url(#SVGID_136_);fill:#222222;}
	.st69{clip-path:url(#SVGID_138_);fill:#222222;}
</style>
<g>
	<defs>
		<path id="SVGID_1_" d="M59.7,57.7c0.7,0.3,1.5-1.6,3.9-6.2c2.4-4.6,2.3-6.5,1.4-9.5c-1-3-2.8-4.6-7.6-5.3
			c-4.8-0.7-6.7,0.5-6.9,0.9c-0.2,0.3,2.3,2.5,2.7,2.5c0.4,0,2.3-0.3,4.4,0.4c2.1,0.7,3.8,1.8,4.3,6c0.5,4.2-2.1,8.9-2.6,9.3
			C58.9,56.1,59,57.4,59.7,57.7L59.7,57.7z M33.8,48.7c0.5-1.1-1.8-1.8-2-1.6c-3.1,1.8-5,10.1-5.3,12c-0.3,1.9-0.6,3.2,0.2,3.2
			c0.8,0,0.7-0.3,2.3-6C30.5,50.6,33.4,49.7,33.8,48.7L33.8,48.7z M68.1,33.3c-4-3.4-8.3-3.4-12.4-3.1c-4.1,0.3-8.3,2.6-8.5,2.7
			c-0.2,0.1,0.2,2.1-0.1,1.9c-0.3-0.2-0.2-1.1-0.5-1.6c-0.2-0.6-4.1-4.2-4.3-4.3c-0.2-0.1-0.6,0.1-1,0.1c-0.4,0-1.8-1.6-2.3-2.1
			c-0.5-0.6,0-0.9-0.5-1.2c-0.5-0.3-3-0.3-5.1,0.1c-2.1,0.4-5.3,2.3-7.2,5.1c-1.8,2.9-1.7,7-1.8,7.6c0,0.6,1.5,2.3,2,2.7
			c0.5,0.4,2,1.3,5.9,4.6c3.9,3.3,11,10.4,11.5,10.6c0.5,0.3,1.4,0.3,3.3,0.7c1.9,0.4,9.9,1.8,10.6,1.8s0.4-1.2,0.4-2.3
			c0-1.1-3.1-12.9-3.3-13.5c-0.3-0.6-6.4-6.9-6.6-7.2c-0.2-0.3,2.9-2.2,6-3.1c3.2-0.9,7.7-0.2,10.1,0.8c2.4,1,4.5,4.5,5.2,8.8
			c0.7,4.2-1.1,10.7-2.3,13c-1.1,2.3-7.5,9.9-10.8,12.2c-3.3,2.2-6.6,2.8-10.1,2.9c-3.5,0.1-7.8-1.1-9.5-2.1c-1.7-1-2.9-2.2-3.1-6.4
			c-0.2-4.2,3.2-9.9,3.4-10.2c0.2-0.3,0.1-0.8-0.3-1.1c-0.4-0.3-1.2-0.5-1.5-0.1C35,51,31.5,58.2,31,62.1c-0.5,3.9-0.2,6.3,2.4,9.2
			c2.6,2.9,5.3,3.3,10.1,3.2c4.8-0.1,9.6-2.5,13.5-5.1s8.3-6.9,12.1-12.5c3.8-5.7,3.5-8.3,3.9-12.9C73.6,39.5,72.1,36.7,68.1,33.3
			L68.1,33.3z M39.9,30.3l4.3,3.4l-2.1,0.5l-3-3.8L39.9,30.3z M38.2,30.8l3.2,3.2l-0.4,0.3L37.6,31L38.2,30.8L38.2,30.8z M40.1,34.6
			c-0.1,0.1-1.8,1-1.9,0.8c-0.1-0.2-3.3-3.4-3.3-3.4c0.2-0.1,1.1-0.8,1.5-0.7C36.9,31.5,40.2,34.5,40.1,34.6L40.1,34.6z M30.9,29.5
			c0.3-0.4,3-2.5,3.4-2.2c0.4,0.3,2.6,2.4,2.5,2.5c-0.1,0.1-1.6,0.6-2.4,1.1c-0.8,0.5-1.1,0.9-1.4,0.7c-0.3-0.2-1.5-1.4-1.5-1.4
			C31.2,30,30.6,29.9,30.9,29.5L30.9,29.5z M27.8,39.5c-0.2,0.1-0.9-1.3-0.8-2.8c0.1-1.6,1.5-5.1,2.5-5.4c0.3-0.1,1.9,1.6,1.8,1.9
			c-0.1,0.3-2.1,2.2-2.8,3.8C27.8,38.6,28,39.5,27.8,39.5z M31.8,43.2c-0.2-0.1-2.7-2-2.8-2.5c0-0.5,0.1-2.7,1.2-4.6
			c1.1-1.9,3.3-3.7,3.8-3.7c0.3,0,3.2,3.5,3.2,3.5s-2.8,1.8-4,3.8C32,41.8,32,43.3,31.8,43.2L31.8,43.2z M43.4,53.9
			c0-0.1,0.8-4.3,0.5-4.7c-0.3-0.4-0.8-0.1-0.8,0c0,0.1-0.4,4.6-0.6,4.5c-0.2-0.1-0.6-0.5-0.6-0.6c0-0.1,0.6-5.3,0.5-5.5
			c-0.2-0.2-0.9-0.1-0.9,0.1c0,0.2-0.2,4.6-0.4,4.5c-0.2-0.1-0.9-0.7-0.9-1c0-0.2,0.6-5,0.5-5.2c-0.1-0.2-0.9-0.3-0.9-0.2
			c0,0.1,0,4.7-0.4,4.6c-0.3-0.1-1-0.6-0.9-0.9c0-0.3,0.7-5,0.6-5.1c-0.1-0.2-0.8-0.4-0.8-0.3s0,4.9-0.5,4.6
			C37.4,48.7,37,48.2,37,48c0-0.3,0.5-5.2,0.3-5.3c-0.2-0.1-0.7-0.2-0.8,0c-0.1,0.2,0,5.1-0.3,4.8c-0.4-0.3-1.1-0.9-1.1-1.3
			c0-0.4,0.6-4.2,0.5-4.4c-0.1-0.2-0.8-0.2-0.8,0.1c0,0.4-0.2,3.5-0.5,3.4c-0.3,0-1.5-0.8-1.4-1.8c0.1-1,1.2-4.1,3.2-5.1
			c0.4-0.2,5.7,6,6.9,7.3c1.2,1.3,2.4,2.6,2.1,4.5c-0.3,1.9-0.5,2.3-0.9,2.9C43.6,53.8,43.4,54.1,43.4,53.9L43.4,53.9z M55.9,52.5
			c0.2,0.8,0.6,0.7,0.3,1c-0.2,0.3-1.7-0.1-2.1,0.3c-0.4,0.4-1.8,1.8-2,2c-0.2,0.2-0.3,1-0.3,0.8c0-0.3,0.3-3-0.1-3.2
			c-0.5-0.1-0.9,0.1-0.8,0.4c0.1,0.3,0,2.3,0,2.3l-0.8,0c0,0,0.1-2.9-0.2-2.9c-0.3,0-0.9,0.1-0.9,0.5c0,0.4,0.2,2.3,0.1,2.3
			c-0.1,0-0.8,0-0.8-0.1c0-0.1-0.1-2.2-0.3-2.2c-0.2,0-0.8,0.3-0.8,0.6c0.1,0.3,0,1.5,0,1.5l-2.3-0.3c0,0,1.9-2.1,2.5-3.5
			c0.6-1.5,0.8-3.4,0.8-3.4c0.3-0.4,1.6,0.1,3-0.6c1.4-0.7,2.8-1.8,3.1-1.8C54.7,46.2,55.7,51.6,55.9,52.5L55.9,52.5z M53.6,43.6
			c0.1,0.4-0.7,1.7-2.7,2.1c-2,0.4-2.9,0.6-3.6,0c-0.7-0.6-9.3-8.3-9.4-8.8c0-0.1,2.1-1.2,3.8-1.6c1.6-0.4,3.3-0.3,3.5-0.3
			C45.4,34.9,53.5,43.1,53.6,43.6L53.6,43.6z"/>
	</defs>
	<clipPath id="SVGID_2_">
		<use xlink:href="#SVGID_1_"  style="overflow:visible;"/>
	</clipPath>
	<rect x="19.4" y="20.2" class="st0" width="59.1" height="59.6"/>
</g>
</svg>
