<svg id="Capa_1" data-name="Capa 1" xmlns="http://www.w3.org/2000/svg" viewBox="0 0 253.78 80.34"><defs><style>.cls-1{fill:#231f20;fill-rule:evenodd;}</style></defs><title>el colef</title><path class="cls-1" d="M130,17.22l0.06-.77,0.06-.79,0.06-.83,0-.86,0.06-.88,0-.94,0-.94,0.06-1,0-1,0-1.08,0-1.08,0-1.11,0-1.17,0-1.19,0-1.19,0-1.27h9.64l-0.15,3.73h-0.19l-0.15,0h-0.17l-0.15,0h-0.17l-0.15,0-0.13,0h-0.15l-0.12,0h-4.44l0,0.23V5.18l0,0.19V5.57l0,0.15,0,0.15V6.13l0,0.12v1h3.26l0.13,0h0.56l0.12,0h0.23l0.13,0h0.33l0.12,0,0.1,0h0.12l-0.15,3.76h-0.23l-0.08,0H138.6l-0.08,0h-0.65l-0.13,0H134L134,11l0,0.12v0.25l0,0.12v0.13l0,0.12V12l0,0.13v0.37l0,0.12v0.58l0,0.06V13.5l0.15,0,0.12,0,0.15,0,0.13,0h0.29l0.13,0,0.15,0h0.15l0.17,0h0.35l0.19,0h1.29l0.23,0h0.21l0.23,0h0.21l0.19,0,0.23,0h0.21l0.17,0,0.21,0,0.19,0,0.19,0,0.19,0,0.19,0-0.15,3.74H130ZM145.46,1.11L145.4,2.32l-0.08,1.19-0.06,1.15-0.06,1.11-0.06,1.08-0.06,1.08,0,1-0.06,1,0,1,0,0.94,0,0.88v0.86l0,0.83,0,0.81,0,0.75v1.23h-3.63l0.08-1.36,0.06-1.31,0.08-1.25,0-1.21,0.06-1.15,0.06-1.09,0-1,0-1,0-1,0-.9,0-.88,0-.86V3.4l0-.79,0-.77,0-.73h3.61ZM162.93,5l-0.19-.08-0.17-.08-0.17-.08L162.2,4.7,162,4.65l-0.19-.08-0.17,0-0.19,0-0.17,0-0.17,0-0.19,0-0.17,0-0.17,0-0.19,0h-0.58l-0.23,0-0.21,0-0.23,0-0.21.06-0.19.06-0.19.06-0.19.08-0.17.1-0.17.1L157.84,5l-0.17.12-0.15.13-0.13.15-0.15.13-0.13.17L157,5.86,156.84,6l-0.12.19-0.1.19-0.1.21-0.1.23-0.08.21-0.06.23-0.08.23,0,0.25L156.13,8l0,0.29,0,0.27,0,0.27,0,0.29V9.43L156,10l0.06,0.52,0,0.23,0.06,0.21,0,0.23,0.06,0.21,0.06,0.21,0.06,0.17,0.1,0.19,0.08,0.17,0.1,0.19,0.1,0.15,0.1,0.13L157,12.77l0.13,0.12L157.21,13l0.15,0.12,0.13,0.1,0.15,0.1,0.17,0.1L158,13.5l0.17,0.08,0.19,0,0.19,0.08,0.21,0,0.19,0,0.23,0,0.23,0,0.23,0h0.6l0.17,0,0.17,0h0.19l0.17,0,0.17,0,0.17,0,0.17,0,0.17,0,0.17,0,0.19,0,0.17-.06,0.19-.06,0.19-.06,0.19-.06-0.42,3.76-0.19.06-0.21.06-0.21.06-0.19.06-0.19,0-0.21.06-0.21,0-0.21,0-0.21,0-0.21,0-0.21,0-0.21,0-0.21,0-0.21,0H159l-0.4,0-0.38,0-0.4,0-0.36-.06-0.36-.08-0.35-.08-0.33-.12-0.33-.12-0.31-.13-0.31-.15-0.29-.17-0.27-.19-0.25-.19L154.39,16l-0.25-.23-0.21-.27-0.21-.25L153.5,15l-0.17-.29-0.17-.31L153,14.06l-0.15-.35-0.11-.35L152.62,13l-0.12-.38-0.08-.38-0.08-.42-0.06-.42-0.06-.44,0-.46V10l0-.5,0-.5V8.53l0.06-.5,0-.44,0.08-.46,0.08-.46,0.1-.4,0.12-.42,0.12-.38,0.15-.38,0.13-.36,0.17-.37L153.43,4l0.19-.33,0.21-.31,0.23-.29,0.23-.29,0.27-.25,0.27-.27,0.27-.21,0.29-.21,0.29-.19L156,1.52l0.31-.15,0.36-.13L157,1.09,157.36,1l0.38-.1,0.38-.06,0.38,0,0.42,0h0.83l0.21,0,0.23,0h0.19l0.23,0,0.21,0,0.21,0,0.21,0,0.23,0,0.19,0,0.23,0.06,0.21,0,0.21,0.06,0.23,0.06,0.21,0.06L162.93,5h0Zm6.24,2.8-0.19,0-0.19,0-0.17.08L168.46,8l-0.15.12-0.13.15-0.12.17-0.12.21-0.1.21-0.1.25-0.06.29-0.08.31,0,0.33,0,0.37,0,0.38v0.79l0,0.35,0,0.31,0,0.31,0.06,0.27,0.06,0.25,0.08,0.21,0.1,0.21,0.1,0.15,0.12,0.15,0.13,0.13,0.13,0.1,0.15,0.08,0.15,0.06,0.19,0,0.19,0,0.19,0,0.19,0,0.17-.08,0.15-.08,0.15-.12,0.13-.13,0.13-.17,0.12-.19,0.1-.21,0.08-.23,0.08-.27,0.06-.29,0.06-.33,0-.33,0-.35V10.58l0-.38,0-.35,0-.33-0.06-.31L170.52,9l-0.06-.23-0.08-.19-0.12-.17-0.12-.15L170,8.08,169.88,8l-0.15-.08-0.15-.06-0.19,0-0.21,0h0Zm-5.22,3.48V10.89l0-.38,0-.36,0-.37,0-.35,0.06-.33,0.1-.33,0.08-.31,0.1-.33,0.1-.29,0.12-.27,0.13-.29L164.89,7,165,6.78l0.17-.23,0.17-.25,0.19-.21,0.19-.21L166,5.68l0.21-.17,0.21-.15,0.21-.15,0.25-.13L167.08,5l0.25-.12,0.27-.1,0.27-.08,0.27-.06,0.29,0,0.29,0,0.29,0,0.33,0h0.29l0.27,0,0.29,0,0.27,0,0.27,0.08L171,4.74l0.25,0.08,0.23,0.1L171.67,5l0.21,0.1,0.21,0.15,0.19,0.13,0.19,0.15,0.19,0.19,0.17,0.17L173,6.13l0.17,0.21,0.15,0.23,0.12,0.21L173.57,7l0.13,0.25,0.1,0.27,0.1,0.27L174,8.1l0.08,0.29,0.06,0.29,0,0.33,0.06,0.33,0,0.35,0,0.35,0,0.37v0.75l0,0.38,0,0.36,0,0.36-0.06.35-0.06.35-0.08.33L174,13.6l-0.1.29-0.12.31-0.12.29-0.12.27-0.15.27-0.13.25-0.15.25-0.17.23-0.19.23-0.17.19-0.21.19-0.21.17-0.21.17-0.23.15-0.23.12-0.23.13-0.25.12-0.25.08-0.27.08-0.29.06-0.27.06-0.29,0-0.31,0h-0.6l-0.29,0-0.29,0-0.27-.06-0.25-.06-0.27-.06-0.25-.1-0.23-.1-0.23-.1-0.21-.13-0.23-.13L166,16.65l-0.21-.15-0.17-.17-0.17-.19-0.17-.19-0.15-.21L165,15.52l-0.15-.25L164.68,15l-0.1-.25-0.12-.27-0.1-.29-0.1-.27-0.08-.29-0.06-.33L164.08,13l0-.35L164,12.37l0-.35,0-.36V11.27h0ZM179.77,1.11L179.7,2.32l-0.06,1.19-0.08,1.15L179.5,5.78l0,1.08-0.08,1.08,0,1,0,1,0,1,0,0.94,0,0.88,0,0.86,0,0.83,0,0.81v2h-3.63l0.06-1.36,0.06-1.31,0.08-1.25,0.06-1.21,0-1.15,0.06-1.09,0-1,0.06-1,0-1,0-.9,0-.88,0-.86,0-.83,0-.79,0-.77V1.11h3.63Zm4.8,8.35h2.36V9.12l0-.23,0-.21,0-.19,0-.19-0.06-.17,0-.15-0.08-.13-0.08-.12-0.08-.12-0.08-.1-0.1-.06-0.1-.06-0.12-.06-0.1,0-0.13,0-0.13,0-0.12,0-0.13,0-0.12.06-0.1.08-0.1.1-0.1.13-0.1.12L184.94,8l-0.1.15-0.06.19-0.06.19-0.06.19,0,0.21-0.06.25V9.47h0Zm4.3,7.58-0.19.06-0.23.06-0.21.06-0.21,0-0.19.06-0.21,0-0.21,0-0.19,0-0.19,0-0.21,0-0.19,0h-0.19l-0.19,0-0.19,0H185.4l-0.29,0-0.27,0-0.27-.06-0.27,0-0.23-.08-0.23-.08-0.23-.1-0.23-.1L183.17,17,183,16.82l-0.19-.12-0.17-.17-0.19-.15-0.15-.17L182.1,16l-0.17-.19-0.13-.21-0.13-.21-0.12-.25-0.12-.23-0.1-.25-0.1-.25-0.08-.29-0.08-.27L181,13.56,181,13.25l0-.31,0-.33,0-.35,0-.33V11.16l0-.38,0-.38,0-.38L181,9.64l0-.35,0.08-.35,0.1-.35,0.1-.31,0.1-.31,0.1-.31,0.13-.29,0.13-.27,0.15-.27L182,6.62l0.17-.25,0.17-.23,0.19-.21,0.19-.19L183,5.57l0.21-.17,0.21-.17,0.23-.13L183.86,5l0.25-.12,0.25-.1,0.25-.08,0.27-.08,0.29,0,0.29,0,0.29,0,0.29,0h0.27l0.25,0,0.23,0,0.25,0,0.21,0.06,0.23,0,0.19,0.08,0.21,0.08,0.19,0.08L188.24,5l0.17,0.1,0.17,0.12,0.17,0.12,0.13,0.13L189,5.59l0.15,0.15,0.12,0.15,0.12,0.17,0.12,0.17,0.1,0.19,0.1,0.19,0.08,0.23L189.87,7l0.08,0.25L190,7.53l0,0.25L190.1,8l0,0.29,0,0.27,0,0.29,0,0.31V10l0,0.13v0.29l0,0.13,0,0.15,0,0.17v0.31l0,0.15,0,0.17,0,0.17,0,0.19h-5.49l0,0V12h0V12l0,0v0.17l0,0.25,0,0.23,0,0.21,0.08,0.21,0.08,0.17,0.1,0.17,0.1,0.13,0.13,0.15,0.13,0.1L185.4,14l0.17,0.1,0.19,0.08,0.23,0,0.25,0.06h0.25l0.29,0h0.15l0.15,0h0.31l0.15,0,0.13,0,0.17,0,0.15,0,0.13,0,0.17,0,0.15,0,0.15,0,0.15,0,0.17,0,0.15-.06,0.15-.06-0.38,3.23h0Zm3.53,1.57,0.25,0.1,0.25,0.1,0.23,0.1L193.39,19l0.21,0.08,0.23,0.08,0.23,0.06,0.19,0.06,0.21,0.06,0.19,0,0.19,0.06,0.17,0h0.17l0.17,0,0.15,0h0.17l0.27,0,0.25,0,0.21-.06,0.23-.08,0.19-.1,0.19-.12,0.15-.13,0.15-.15,0.1-.19,0.12-.17,0.1-.25,0.08-.23,0.06-.27,0-.31,0-.31V16.71h0v-0.1h0v-0.1l0,0V16.32l-0.13.1-0.13.1-0.15.1-0.15.1-0.13.08-0.15.08-0.15.06-0.15.06-0.15.06-0.17,0-0.17,0-0.17,0h-0.17l-0.17,0-0.19,0h-0.4l-0.23,0-0.23,0-0.19,0-0.21-.06L194,17l-0.19-.06-0.19-.1-0.17-.1-0.17-.1-0.15-.12L193,16.38l-0.17-.13-0.13-.15-0.15-.17-0.12-.17-0.13-.17-0.12-.21L192,15.17l-0.1-.21-0.1-.21-0.1-.23-0.06-.23-0.1-.25-0.06-.25,0-.27-0.06-.27,0-.27,0-.29,0-.29,0-.31V11.35l0-.4,0-.42,0-.38,0.08-.37,0.08-.38L191.66,9l0.12-.37,0.1-.31L192,8l0.13-.31,0.15-.29,0.17-.29,0.17-.27,0.19-.25L193,6.39l0.21-.21L193.48,6l0.25-.19L194,5.57l0.25-.15,0.29-.15,0.29-.15L195.12,5l0.31-.12,0.33-.1,0.33-.08,0.35-.06,0.36-.06,0.37,0,0.38,0h0.9l0.23,0,0.25,0,0.25,0,0.23,0,0.23,0,0.25,0,0.23,0,0.23,0,0.23,0.08,0.23,0L201,4.93,201.24,5l0.19,0.06,0.23,0.08L201.61,6.2,201.55,7.3l-0.06,1.08-0.06,1.09,0,1.11,0,1.09-0.06,1.11,0,1.13,0,1.06,0,0.92,0,0.81,0,0.67,0,0.54,0,0.42v0.27l0,0.15L201,19l0,0.25-0.06.23-0.08.21-0.06.23-0.08.21-0.08.21-0.08.17-0.1.19-0.12.17-0.12.17-0.12.15-0.12.13-0.13.15-0.13.13-0.13.12-0.15.13-0.15.1-0.17.1-0.17.1-0.17.08-0.19.1-0.21.06-0.19.06-0.21.08-0.23,0-0.21,0-0.25,0-0.5.06-0.52,0H196l-0.21,0h-0.25l-0.21,0-0.25,0-0.21,0-0.25,0-0.21,0-0.23,0-0.21-.06-0.23,0-0.21-.06-0.23-.08L193,22.22l-0.21-.08-0.23-.08-0.19-3.44h0Zm5.74-10.79,0,0,0,0-0.08,0h0l-0.08,0,0,0-0.06,0h-0.06l0,0-0.08,0H197l-0.13,0-0.12,0-0.13,0-0.12,0-0.12.06-0.12,0-0.12.06L196.06,8l-0.1.1-0.08.1-0.19.17-0.17.23-0.15.27-0.13.27-0.1.31-0.1.33-0.08.35,0,0.38,0,0.4,0,0.42v0.29l0,0.27,0,0.25,0,0.25L195,12.62l0.06,0.21L195.17,13l0.1,0.17,0.12,0.15,0.12,0.13,0.12,0.12,0.13,0.1,0.13,0.08,0.15,0,0.15,0,0.17,0,0.19,0,0.17,0,0.17-.06,0.15-.08,0.15-.1,0.13-.13,0.12-.15,0.12-.17,0.12-.19,0.08-.23,0.08-.23,0.06-.27,0.08-.29,0-.31,0-.33,0-.35,0.08-3.09h0ZM203.6,4l0.1-2.84h3.57L207.19,4H203.6ZM207.19,5l-0.08.67,0,0.69L207,7.07l0,0.69,0,0.73,0,0.71,0,0.73,0,0.75,0,0.73,0,0.79,0,0.79,0,0.81,0,0.83v2.61h-3.67l0-.71,0.06-.73,0-.71,0.06-.73,0-.73,0-.75,0-.73,0-.77,0-.77,0-.77V9l0-.79,0-.79,0-.81V5h3.69Zm6.38,2.77-0.19,0-0.19,0L213,7.93,212.84,8l-0.15.12-0.13.15-0.12.17-0.12.21-0.1.21-0.1.25-0.06.29L212,9.72,212,10l0,0.37,0,0.38v0.79l0,0.35,0,0.31L212,12.54l0,0.27,0.06,0.25,0.1,0.21,0.08,0.21,0.1,0.15,0.12,0.15,0.13,0.13,0.13,0.1,0.17,0.08,0.15,0.06,0.17,0,0.19,0,0.21,0,0.17,0,0.19-.08,0.15-.08,0.13-.12,0.15-.13,0.12-.17,0.12-.19,0.1-.21,0.08-.23,0.08-.27,0.08-.29,0-.33,0.06-.33,0-.35V10.58l0-.38,0-.35,0-.33L215,9.22,214.91,9l-0.06-.23-0.1-.19-0.1-.17-0.12-.15-0.13-.13L214.28,8l-0.15-.08L214,7.85l-0.19,0-0.19,0h0Zm-5.24,3.48,0-.38,0-.38,0-.36,0-.37,0-.35,0.08-.33,0.08-.33,0.08-.31,0.1-.33,0.12-.29L209,7.58l0.12-.29L209.29,7l0.15-.25,0.15-.23,0.17-.25L210,6.09l0.19-.21,0.19-.19,0.21-.17,0.21-.15L211,5.2l0.23-.13L211.48,5l0.25-.12,0.25-.1,0.27-.08,0.27-.06,0.29,0,0.29,0,0.31,0,0.31,0H214l0.29,0,0.29,0,0.27,0,0.25,0.08,0.25,0.08,0.23,0.08,0.25,0.1L216,5l0.23,0.1,0.21,0.15,0.19,0.13,0.19,0.15L217,5.76l0.17,0.17,0.17,0.19,0.15,0.21,0.15,0.23,0.13,0.21L217.95,7l0.12,0.25,0.12,0.27,0.1,0.27,0.1,0.29,0.08,0.29,0.06,0.29L218.56,9l0,0.33,0,0.35,0,0.35v1.5l0,0.36,0,0.36-0.06.35-0.06.35-0.08.33-0.08.33-0.1.29-0.12.31-0.1.29-0.13.27-0.13.27-0.15.25-0.15.25-0.17.23-0.19.23-0.19.19-0.19.19-0.21.17-0.21.17-0.23.15-0.21.12-0.25.13-0.25.12-0.25.08-0.27.08-0.27.06-0.29.06-0.29,0-0.31,0h-0.6l-0.29,0-0.29,0-0.27-.06L212,17.4l-0.25-.06-0.23-.1-0.25-.1-0.23-.1-0.21-.13-0.23-.13-0.17-.13-0.21-.15L210,16.32l-0.17-.19-0.17-.19-0.17-.21-0.13-.21-0.15-.25L209.08,15l-0.13-.25-0.1-.27-0.1-.29-0.1-.27-0.08-.29-0.06-.33L208.46,13l0-.35-0.06-.33V12l0-.36,0-.38h0Zm-71.55,28-0.08,0-0.06,0,0,0-0.08,0,0,0h-0.12l-0.06,0-0.06,0-0.06,0h-0.06l0,0h-0.35l-0.15,0-0.12,0-0.13,0-0.13,0-0.1.06-0.13,0-0.12.06-0.1.08-0.1.08-0.12.08-0.1.1-0.17.21-0.17.23-0.17.25-0.12.29-0.12.33-0.1.33-0.06.36-0.06.38,0,0.38,0,0.44v0.29l0,0.31,0,0.27,0,0.25,0.06,0.27,0.06,0.21,0.1,0.21,0.08,0.19L134,45l0.12,0.15,0.12,0.13,0.13,0.1,0.15,0.08,0.13,0.06,0.15,0h0.36l0.17-.06,0.19,0,0.15-.1,0.13-.12,0.13-.12L136,45l0.12-.19,0.12-.19,0.08-.23,0.08-.25,0.08-.29,0.06-.31,0-.31,0-.35,0-.36,0.12-3.23h0Zm-0.37,8.56-0.13.15-0.12.12L136,48.2l-0.15.12-0.13.1-0.13.1-0.15.1-0.15.08-0.15.06-0.15,0-0.17.06-0.17,0-0.19,0-0.19,0h-0.19l-0.21,0-0.21,0-0.23,0-0.21,0-0.21,0-0.21-.06-0.19-.08-0.19-.06-0.19-.1-0.17-.1-0.17-.12-0.15-.12-0.15-.13L131.4,48l-0.13-.17-0.13-.17L131,47.43l-0.12-.19L130.75,47l-0.12-.19-0.12-.23-0.1-.21-0.08-.25-0.08-.23-0.08-.25-0.06-.27-0.06-.29,0-.27,0-.27,0-.31,0-.31V42.53l0-.4,0.06-.36,0-.37,0.08-.36,0.08-.37,0.08-.35,0.12-.31,0.12-.33,0.13-.29,0.13-.31,0.15-.31,0.17-.27,0.17-.27L131.5,38l0.19-.23,0.23-.25,0.21-.21,0.21-.19,0.25-.19,0.23-.15,0.23-.17,0.27-.12,0.27-.13,0.25-.1,0.29-.1,0.29-.08,0.27,0L135,36l0.31,0H136L136,36h0.08l0.08,0h0.08l0.08,0,0.1,0h0.15l0.1,0,0.08,0,0.1,0,0-.19V35.7l0-.19V35.1l0-.21v-0.4l0-.23V33.57l0-.27V32.51h3.49l-0.08,1.17,0,1.17L140.25,36l-0.06,1.11,0,1.08-0.06,1.06,0,1,0,1-0.06,1,0,0.94-0.06,1,0,0.94,0,0.9,0,0.9,0,0.86,0,0.88h-3.34l0-.79h0Zm8.95-7h2.36V40.27l0-.21,0-.19,0-.17-0.06-.17,0-.15-0.08-.13-0.06-.12L147.32,39l-0.08-.08-0.1-.08L147,38.77l-0.1,0-0.12,0h-0.25l-0.12,0-0.13,0-0.12.08-0.12.08L146,39l-0.1.1-0.1.13-0.08.15-0.1.17-0.06.17-0.06.19-0.06.19,0,0.21,0,0.21,0,0.27h0Zm4.32,7.58-0.23.06-0.19.06L149,48.6l-0.21,0-0.19.06-0.21,0-0.21,0-0.19,0-0.19,0-0.19,0-0.21,0-0.19,0-0.19,0h-0.19l-0.19,0h-0.17l-0.29,0-0.29,0-0.27,0-0.27,0-0.25-.08-0.25-.06-0.23-.08-0.23-.1-0.23-.1L144,48.33l-0.21-.12-0.19-.15-0.19-.15-0.17-.15L143,47.58l-0.15-.19-0.15-.19L142.6,47l-0.15-.21-0.1-.25-0.12-.23L142.12,46l-0.1-.27-0.08-.27-0.06-.29-0.08-.29-0.06-.31,0-.31,0-.33,0-.33,0-.36V42.55l0-.42,0-.36,0-.38,0.06-.36,0.06-.35,0.06-.35L142,40l0.1-.33,0.1-.31,0.12-.29,0.12-.29,0.13-.29,0.15-.25,0.15-.25,0.17-.25,0.17-.23,0.17-.21,0.19-.21,0.21-.17,0.21-.17,0.21-.13,0.23-.15,0.23-.12,0.25-.12,0.25-.1,0.27-.08,0.27-.06L146,36l0.29,0,0.29,0,0.31,0,0.25,0,0.27,0,0.23,0,0.23,0L148.05,36l0.21,0,0.21,0.06,0.19,0.1,0.19,0.08,0.19,0.1,0.17,0.1,0.15,0.1,0.17,0.13,0.15,0.13L149.84,37,150,37.12l0.13,0.17,0.1,0.17,0.12,0.17,0.1,0.19,0.1,0.21,0.1,0.19,0.06,0.23,0.08,0.21,0.06,0.25,0.06,0.25,0.06,0.25,0,0.27L151,40l0,0.27,0,0.31v0.67l0,0.13v0.27l0,0.13,0,0.17v0.13l0,0.15,0,0.17v0.15l0,0.17,0,0.15,0,0.17,0,0.17-5.49,0V43.3h0l0,0v0.54l0,0.23,0,0.23,0.06,0.17,0.08,0.19,0.1,0.17,0.1,0.15,0.15,0.12L146,45.24l0.15,0.1,0.19,0.1,0.21,0.06,0.23,0.08,0.23,0,0.27,0h0.58l0.15,0,0.15,0h0.15l0.15,0,0.15,0,0.15,0,0.15,0,0.15,0,0.17,0,0.15,0,0.15,0,0.15,0,0.17-.06,0.15,0-0.38,3.21h0ZM162,32.51L162,33.72l-0.06,1.19L161.86,36l-0.08,1.13,0,1.09-0.06,1,0,1-0.06,1,0,1,0,0.92,0,0.9V45l0,0.83v0.81l0,0.77V48.6H157.8l0.08-1.36,0.06-1.31L158,44.68l0-1.19,0.08-1.17,0-1.09,0-1,0-1,0-.94,0-.92,0-.88,0-.86,0-.83V34l0-.77,0-.73H162Zm5.24,16.17-0.1,0-0.1,0-0.1,0-0.1,0-0.1,0-0.08,0-0.1,0-0.1,0-0.08,0-0.1,0H166l-0.08,0h-0.1l-0.35,0-0.31,0-0.17,0-0.13,0-0.13,0-0.15-.06-0.13-.06-0.13-.08-0.12-.08-0.12-.08-0.13-.1-0.12-.1-0.1-.1-0.1-.12-0.1-.12-0.08-.13-0.1-.12-0.1-.13-0.12-.29-0.12-.31-0.1-.31,0-.35-0.06-.36,0-.4,0-.4,0-.38L163,44.3l0.08-.35,0.12-.33,0.13-.31,0.08-.13,0.08-.13,0.1-.12,0.1-.13,0.1-.13,0.12-.1,0.1-.12,0.13-.12,0.27-.21,0.31-.19,0.31-.17,0.36-.17,0.4-.15,0.42-.13,0.06,0,0,0,0.06,0,0.06,0,0.06,0h0.06l0.1,0,0.06,0,0.48-.13,0.4-.17,0.17-.08,0.17-.08,0.15-.08,0.12-.1,0.13-.08,0.1-.1,0.1-.08,0.06-.1,0.08-.08,0-.1,0-.1V39.71l0-.1,0-.08,0-.08,0-.08,0-.08-0.06,0-0.06-.06-0.08,0-0.06,0-0.1,0-0.1,0L168,39h-0.77l-0.21,0-0.21,0-0.19,0-0.23,0-0.21.06-0.21.06-0.23.06-0.21.08-0.21.08-0.23.1-0.19.1-0.23.1-0.23.12-0.19.13,0.38-3.55,0.19-.06,0.21-.08,0.21-.06,0.21-.08,0.21,0,0.23-.06,0.21,0,0.23-.06,0.21,0,0.25,0,0.21,0,0.25,0,0.23,0,0.23,0h0.5l0.48,0,0.44,0,0.4,0.06,0.38,0.08,0.17,0.06,0.17,0.06,0.17,0.06,0.15,0.08,0.13,0.08,0.15,0.08,0.12,0.1,0.13,0.1,0.12,0.1,0.12,0.1,0.1,0.12,0.1,0.13,0.08,0.12,0.08,0.13,0.08,0.13,0.06,0.15,0.06,0.15,0,0.15L172,38.12l0,0.17,0.06,0.38,0,0.37v0.15l0,0.06v0.56l0,0.1v0.33l0,0.1-0.21,6.2V48.6h-3.51l0-.33,0-.29V47.7l0-.25,0-.23,0-.23,0-.21V46.58l0-.17V46l0-.12v-0.1l0-.1V45.59l0.06-2.17,0,0-0.06,0,0,0h-0.06l-0.06,0,0,0-0.06,0,0,0-0.08,0-0.06,0-0.06,0-0.08,0-0.08,0-0.08,0-0.08,0-0.08,0-0.75.23-0.12.06-0.12,0-0.1.06-0.08.06-0.1.08-0.1.06-0.06.06-0.06.08-0.06.08-0.06.1,0,0.08,0,0.1,0,0.1,0,0.12v0.42l0,0.1,0,0.1,0,0.08,0,0.08L166,45.89l0,0.08L166.14,46l0.08,0,0.06,0.06,0.08,0,0.08,0,0.08,0H167l0.08,0h0.06l0.08,0,0.06,0,0.1,0h0.08l0.08,0,0.08,0,0.1,0,0.1,0,0.1,0-0.56,2.65h0Zm11.87-.08,0.06-.77,0.06-.79,0-.83,0.06-.86,0.06-.88,0-.92,0-1,0-1,0-1,0-1,0-1.09,0-1.13,0-1.13,0-1.19,0-1.23V32.51h8.91l-0.13,3.71H188l-0.15,0h-0.17l-0.15,0h-0.13l-0.15,0h-0.13l-0.13,0h-0.38l-0.06,0h0l-3.07,0,0,0.23v0.21l0,0.19,0,0.17v0.17l0,0.15v0.13l0,0.12v0.33l0,0.1v0.73h3.13l0.15,0h0.37l0.1,0h0.19l0.08,0,0.1,0h0.08l0.1,0h0.08l-0.15,3.76-0.08,0h-0.08l-0.08,0h-0.4l-0.1,0h-3.61L183,45.41v0.13l0,0.5v0.46l0,0.44v0.38l0,0.36v0.9h-3.82Zm16.55-8.87h0l0,0H195l-0.19,0-0.19,0-0.19.06-0.17.06-0.17.08-0.15.1-0.13.12-0.15.12-0.12.13-0.12.15-0.12.17-0.1.19-0.1.17-0.06.21-0.08.25,0,0.17,0,0.19,0,0.19,0,0.23,0,0.25,0,0.27,0,0.29,0,0.31v0.36l0,0.44,0,0.5,0,0.61,0,0.67,0,0.77,0,0.84,0,0.92H189l0-.71,0.06-.67,0-.71,0.06-.69,0-.69,0-.69,0-.69,0-.71,0-.69,0-.69,0-.71,0-.69V39.58l0-.71V36.23h3.13L192.48,38l0.12-.27,0.12-.23,0.15-.23L193,37l0.15-.19,0.13-.17,0.13-.15,0.17-.13,0.13-.12,0.17-.1,0.17-.08,0.17-.08,0.19-.06,0.21,0,0.21,0,0.21,0h0l0.06,0h0.17l0.08,0h0.08l0.08,0h0l0.12,3.78h0Zm6-.54-0.21,0-0.17,0-0.19.06-0.15.1-0.15.12-0.13.15-0.12.17-0.11.19-0.1.21-0.08.25-0.08.29-0.06.31,0,0.33,0,0.37,0,0.38V43l0,0.35,0,0.33,0,0.29,0.06,0.27,0.06,0.25,0.08,0.23,0.1,0.19,0.1,0.17,0.13,0.13,0.12,0.13,0.13,0.1,0.15,0.08,0.17,0.06,0.17,0,0.19,0,0.19,0,0.19,0,0.17-.06,0.17-.1,0.15-.11,0.12-.13,0.13-.17,0.12-.19,0.1-.21,0.1-.23,0.06-.29,0.06-.27,0.06-.31,0-.33,0-.37,0-.38,0-.42,0-.38,0-.36,0-.31,0-.29-0.08-.27L203,40.13l-0.08-.19-0.1-.17-0.12-.15-0.12-.12-0.15-.12-0.15-.08-0.17-.08-0.19,0-0.19,0h0Zm-5.22,3.48V41.88l0-.36,0.06-.36,0-.33,0.06-.35,0.08-.31,0.1-.31,0.1-.31,0.08-.31,0.13-.29,0.13-.27,0.13-.27,0.15-.25,0.15-.23,0.17-.23,0.19-.23,0.19-.19,0.19-.19,0.21-.17,0.23-.17,0.21-.15,0.23-.12,0.25-.13,0.25-.12,0.27-.1,0.25-.06L200.7,36l0.29-.08,0.27,0,0.31,0,0.31,0,0.29,0,0.29,0,0.27,0L203,36l0.27,0,0.27,0.08,0.23,0.1,0.23,0.1,0.23,0.1,0.23,0.12,0.19,0.15,0.21,0.13L205,37l0.17,0.17,0.17,0.17,0.17,0.21,0.17,0.21,0.13,0.21L206,38.17l0.13,0.25,0.12,0.25,0.12,0.27,0.1,0.27,0.08,0.29,0.08,0.27,0.06,0.33,0.06,0.29,0.06,0.33,0,0.33V41.4l0,0.37,0,0.36,0,0.38,0,0.38v0.37l-0.06.36,0,0.35-0.08.35-0.06.33-0.1.31-0.1.33-0.1.29-0.13.29-0.12.29-0.13.25-0.15.25-0.15.25-0.17.23-0.17.21-0.19.21-0.21.19-0.21.17-0.21.17-0.21.15-0.25.13-0.23.12-0.25.12-0.25.1-0.27.08-0.27.06-0.27,0-0.31,0-0.29,0-0.33,0-0.27,0-0.31,0-0.27,0-0.29,0-0.25-.06-0.25-.08-0.27-.08-0.23-.1-0.23-.12-0.21-.1-0.21-.15L198.53,48l-0.19-.15-0.19-.19L198,47.51l-0.17-.19-0.15-.21-0.13-.23-0.15-.21-0.12-.25-0.12-.25L197,45.89l-0.1-.27-0.08-.29L196.77,45l-0.08-.33-0.06-.33,0-.31,0-.35,0-.35V42.67h0ZM208,48.6l0.06-.73,0-.73,0.06-.73,0-.75,0-.75,0-.77,0-.75,0-.79,0-.77,0-.79,0-.77,0-.79,0-.81V36.23h3.38v1.54l0.17-.25,0.15-.21,0.15-.21,0.15-.19,0.19-.17,0.17-.15,0.17-.15,0.19-.12,0.17-.1,0.19-.1,0.21-.08L214,36l0.21,0,0.25,0,0.23,0H215l0.42,0,0.42,0.06L216,36l0.17,0,0.17,0,0.17,0.08,0.15,0.06,0.17,0.06L217,36.31l0.13,0.08,0.13,0.1,0.13,0.12,0.1,0.1,0.1,0.13,0.12,0.12,0.1,0.13,0.08,0.13,0.08,0.15,0.1,0.15,0.06,0.17,0.06,0.17,0.06,0.19,0.1,0.4,0.06,0.44,0,0.48v1.36l0,0.4,0,0.5,0,0.56,0,0.63,0,0.69,0,0.71,0,0.69,0,0.65v0.65l0,0.63,0,0.6,0,0.58,0,0.56h-3.48l0-.48,0-.46,0-.46V46.76l0-.44,0-.42,0-.4,0-.42V44.68l0-.37,0-.36V43.63l0-.31V42.13l0-.4,0-.35,0-.33-0.06-.29,0-.25-0.08-.21-0.06-.17L214.55,40l-0.08-.13-0.12-.12-0.12-.08-0.12-.08L214,39.54l-0.15,0h-0.31l-0.13,0-0.13,0-0.13,0-0.1.08-0.12.06-0.12.1-0.1.1-0.12.12-0.08.12-0.1.13-0.08.13-0.06.17-0.08.17-0.08.19-0.06.21,0,0.23-0.06.27,0,0.27-0.06.35-0.08.73-0.06.86-0.08,1,0,1.13,0,1.25,0,1.36H208Zm15.9-5.9h0v0.23l0,0v0.61l0,0.27,0,0.23,0,0.23,0,0.17,0.06,0.19,0,0.13L224.15,45l0.06,0.1,0.08,0.08,0.1,0.1,0.1,0.06,0.12,0,0.12,0,0.13,0,0.13,0h0.1l0.06,0,0.06,0h0.08l0.08,0,0.1,0,0.1,0h0.06l0,0h0l0,0h0l0,0h0.06l-0.21,3.46-0.12,0-0.12,0-0.12,0-0.1,0-0.12,0-0.13,0-0.12,0h-0.12l-0.12,0-0.13,0H224.3l-0.12,0h-0.25l-0.13,0h-0.12l-0.21,0h-0.19l-0.19,0-0.19,0-0.17,0-0.15-.06-0.17,0-0.15-.06-0.15-.08L222,48.56l-0.13-.08-0.13-.1-0.12-.1-0.12-.1-0.12-.12L221.23,48l-0.1-.12-0.08-.15-0.1-.12-0.08-.17-0.06-.15-0.06-.15-0.08-.17,0-.17-0.1-.4L220.5,46l0-.46,0-.46V44.61l0.21-5.18h-1.34l0.12-3.19h1.46l0.1-2,3.25-1-0.12,3h2.05l-0.12,3.19h-2l-0.13,3.28h0Zm6.59-1.86h2.38V40.73l0-.25V40.27l0-.21,0-.19,0-.17-0.06-.17,0-.15-0.06-.13-0.08-.12L232.46,39l-0.1-.08-0.08-.08-0.12-.08-0.1,0-0.12,0h-0.25l-0.13,0-0.12,0-0.12.08-0.1.08-0.12.1-0.1.1-0.1.13-0.08.15-0.08.17-0.08.17-0.06.19,0,0.19-0.06.21,0,0.21,0,0.27h0Zm4.32,7.58-0.21.06-0.21.06-0.23.06-0.19,0-0.21.06-0.21,0-0.19,0-0.19,0-0.21,0-0.21,0-0.19,0-0.19,0-0.19,0H232l-0.17,0h-0.19l-0.29,0-0.27,0-0.27,0-0.27,0-0.27-.08L230,48.72l-0.23-.08-0.23-.1-0.21-.1-0.21-.12-0.21-.12-0.19-.15-0.19-.15-0.17-.15-0.17-.17L228,47.39l-0.13-.19L227.74,47l-0.13-.21-0.12-.25-0.12-.23L227.26,46l-0.1-.27-0.08-.27L227,45.22,227,44.93l-0.08-.31,0-.31,0-.33,0-.33V43.3l0-.36,0-.38V42.13l0-.36,0-.38,0-.36,0.06-.35,0.08-.35,0.08-.31,0.1-.33,0.1-.31,0.12-.29,0.12-.29,0.15-.29,0.13-.25L228,38l0.17-.25,0.17-.23,0.19-.21,0.17-.21,0.21-.17,0.21-.17,0.23-.13,0.21-.15,0.23-.12,0.25-.12,0.25-.1,0.27-.08,0.27-.06L231.1,36l0.29,0,0.29,0,0.31,0,0.27,0,0.25,0,0.23,0L233,36,233.19,36l0.21,0,0.21,0.06,0.19,0.1L234,36.29l0.19,0.1,0.17,0.1,0.17,0.1,0.15,0.13,0.15,0.13L235,37l0.12,0.13,0.13,0.17,0.12,0.17,0.1,0.17,0.1,0.19,0.1,0.21,0.08,0.19,0.1,0.23,0.08,0.21,0,0.25L236,39.17l0,0.25,0.06,0.27V40l0,0.27,0,0.31v0.56l0,0.12v0.25l0,0.15v0.13l0,0.17v0.29l0,0.17,0,0.15,0,0.17,0,0.15,0,0.17v0.17l-5.51,0V43.3h0v0.56l0,0.23,0,0.23,0.06,0.17,0.08,0.19,0.1,0.17L230.89,45,231,45.13l0.17,0.12,0.15,0.1,0.19,0.1,0.19,0.06,0.23,0.08,0.23,0,0.27,0H233l0.15,0,0.15,0h0.15l0.15,0,0.15,0,0.15,0,0.15,0,0.17,0,0.15,0,0.13,0,0.17,0,0.15,0,0.17-.06,0.15,0-0.38,3.21h0Zm9.2-8.7H244l0,0h-0.65l-0.19,0-0.21,0-0.17.06-0.17.06-0.17.08-0.17.1-0.13.12-0.13.12-0.13.13-0.12.15-0.12.17-0.1.19-0.08.17-0.08.21-0.06.25-0.06.17,0,0.19,0,0.19,0,0.23,0,0.25,0,0.27,0,0.29,0,0.31,0,0.36,0,0.44,0,0.5v0.61l0,0.67,0,0.77,0,0.84,0,0.92h-3.57l0.06-.71,0-.67,0.06-.71,0-.69,0-.69,0-.69,0-.69,0-.71,0-.69,0-.69,0-.71,0-.69,0-.67v-1.4l0-.69V36.23h3.11L240.78,38l0.13-.27,0.12-.23,0.13-.23L241.3,37l0.13-.19,0.13-.17,0.15-.15,0.15-.13,0.15-.12,0.17-.1,0.17-.08,0.19-.08,0.19-.06,0.17,0,0.21,0,0.21,0h0l0.06,0h0.19l0.06,0h0.08l0.08,0h0.06L244,39.73h0Zm5,8.95-0.1,0-0.1,0-0.1,0-0.1,0-0.1,0-0.1,0-0.1,0-0.08,0-0.1,0-0.08,0h-0.35l-0.1,0H247.6l-0.33,0-0.33,0-0.15,0-0.15,0-0.15,0-0.13-.06-0.13-.06-0.12-.08L246,48.45l-0.12-.08-0.12-.1-0.12-.1-0.12-.1-0.1-.12-0.1-.12-0.1-.13-0.08-.12-0.08-.13-0.13-.29-0.12-.31-0.08-.31-0.08-.35,0-.36,0-.4,0-.4,0-.38,0.08-.37,0.08-.35,0.12-.33,0.12-.31,0.08-.13,0.1-.13,0.08-.12,0.1-.13,0.1-.13,0.1-.1,0.12-.12,0.13-.12,0.27-.21,0.31-.19,0.33-.17,0.37-.17,0.4-.15,0.42-.13,0,0,0.06,0,0.06,0,0.06,0,0.06,0h0.06l0.08,0,0.1,0,0.46-.13,0.4-.17,0.19-.08,0.15-.08,0.15-.08,0.13-.1,0.12-.08,0.12-.1,0.08-.08,0.08-.1,0-.08,0.06-.1,0-.1,0-.1,0-.1v-0.1l0-.08,0-.08,0-.08-0.06-.08,0,0-0.08-.06-0.06,0-0.08,0-0.08,0-0.12,0-0.1,0h-0.79l-0.21,0-0.21,0-0.21,0-0.19,0-0.23.06-0.21.06-0.21.06-0.23.08L247,39.5l-0.21.1-0.23.1-0.21.1-0.21.12-0.21.13,0.38-3.55,0.21-.06,0.21-.08,0.19-.06,0.21-.08,0.23,0,0.19-.06,0.23,0L248,36l0.23,0,0.23,0,0.23,0,0.23,0,0.23,0,0.25,0h0.48l0.48,0,0.44,0,0.4,0.06,0.4,0.08,0.17,0.06L252,36.18l0.15,0.06,0.17,0.08,0.13,0.08,0.15,0.08,0.12,0.1,0.13,0.1,0.12,0.1,0.08,0.1L253.16,37l0.1,0.13,0.08,0.12,0.08,0.13,0.08,0.13,0.06,0.15,0.06,0.15,0.06,0.15,0,0.17,0,0.17,0.06,0.38V40l0,0.1v0.25l-0.23,6.2v0.23l0,0.08V48.6H250l0-.33V48l0-.29,0-.25,0-.23V47l0-.21V46.41l0-.15V46.12l0-.15V45.86l0-.1V45.59l0.08-2.17,0,0-0.06,0,0,0h-0.06l0,0-0.06,0-0.06,0-0.06,0,0,0-0.06,0-0.08,0-0.08,0-0.06,0-0.08,0-0.08,0-0.1,0-0.75.23-0.12.06-0.12,0-0.1.06-0.1.06-0.08.08-0.08.06-0.08.06-0.06.08-0.08.08,0,0.1-0.06.08,0,0.1,0,0.1,0,0.12,0,0.1v0.23l0,0.1,0,0.1,0,0.1,0,0.08,0,0.08,0.06,0.06,0,0.08L247.86,46l0.08,0L248,46.14l0.06,0,0.08,0,0.1,0h0.44l0.08,0h0.08l0.06,0,0.08,0,0.06,0h0.1l0.1,0,0.08,0,0.08,0,0.1,0,0.1,0L249,48.68h0ZM139.51,67.59V67.17l0-.33v-3h3.36v0.27l0,0.27,0,0.25,0,0.25,0,0.23,0,0.23,0,0.19,0,0.21,0,0.19v0.38l0,0.19v0.17l0,0.17v0.17l0,0.17-0.33,9.16,0,0.13v0.35l0,0.12v0.65l0,0.12v0.77l0,0.12V80h-4.7l-0.17-.56-0.17-.54L137,78.35l-0.17-.52-0.17-.52-0.15-.54-0.17-.5-0.15-.5,0,0,0,0v0l0,0v0l0,0h0l-2.44-7L133.49,75v0.25l0,0.27v0.31l0,0.37V76.6l0,0.46v0.48l0,0.54v1.54l0,0.19V80H130l0-.46,0-.52,0.06-.58,0-.61,0.06-.65,0-.69,0.06-.75,0-.79,0.06-.88,0-1,0-1.17,0.06-1.31,0-1.44,0.06-1.61,0.06-1.73,0.06-1.86h4.59l4,11.52,0.19-7.82h0Zm9.83,3h-0.19l-0.19.06-0.17.06-0.17.1-0.15.13-0.13.13-0.12.17-0.12.19-0.1.23-0.08.25-0.08.29-0.06.31-0.06.33,0,0.37,0,0.38v0.79l0,0.35,0,0.33,0.06,0.29,0,0.29,0.08,0.23L148,76l0.1,0.19,0.1,0.17,0.12,0.15,0.12,0.13,0.15,0.1,0.15,0.08,0.15,0.06L149,77h0.4l0.19,0,0.17-.06,0.15-.1,0.15-.12,0.13-.15,0.13-.15,0.1-.19,0.1-.21,0.08-.25,0.1-.25,0.06-.31,0-.29,0-.35,0-.37V73.35l0-.38,0-.35,0-.33L150.74,72l-0.06-.25-0.06-.25-0.1-.21-0.1-.17L150.32,71l-0.13-.13-0.13-.1-0.15-.1-0.15,0-0.19-.06h-0.21ZM144.11,74V73.66l0-.36,0-.38,0-.35,0.06-.35,0.06-.35,0.08-.33,0.08-.33,0.1-.29,0.12-.31,0.12-.29,0.12-.27,0.15-.25,0.15-.25,0.15-.27,0.17-.21,0.19-.23,0.19-.19,0.19-.19,0.21-.17,0.21-.17,0.23-.15,0.23-.13,0.25-.12,0.25-.1,0.25-.1,0.27-.08,0.27-.08,0.29,0,0.29-.06H150l0.29,0,0.27,0.06,0.25,0.06,0.25,0.06,0.25,0.08,0.23,0.1,0.25,0.12L152,67.92,152.24,68l0.21,0.15,0.19,0.15,0.19,0.17L153,68.71l0.15,0.19,0.15,0.21,0.15,0.21,0.13,0.25,0.13,0.23,0.12,0.25,0.1,0.25,0.1,0.27,0.1,0.29,0.08,0.31,0.08,0.31,0,0.31,0.06,0.33,0,0.35,0,0.35,0,0.35v0.77l0,0.38,0,0.38,0,0.35-0.06.35-0.06.35-0.08.33-0.08.33-0.1.31-0.12.29-0.12.29-0.13.27-0.13.27-0.13.27-0.17.23-0.17.23-0.17.21-0.19.21-0.21.21-0.19.17-0.23.15-0.21.13-0.23.15-0.23.12-0.27.1-0.25.1-0.27.08-0.27.08-0.29,0-0.29,0-0.29,0h-0.61l-0.29,0-0.27,0-0.29,0-0.27-.08-0.25-.06-0.23-.1-0.25-.1-0.21-.1-0.23-.13-0.21-.12-0.19-.15-0.21-.17-0.17-.15-0.17-.19-0.17-.19-0.15-.21-0.15-.21L145,78.06l-0.13-.25-0.12-.25-0.1-.27-0.1-.27-0.1-.29-0.1-.31-0.06-.29,0-.33-0.06-.33,0-.35,0-.36,0-.35V74h0Zm18.22-2.94h-0.1l0,0h-0.6l-0.21,0-0.19,0-0.17.06-0.19.06-0.17.08-0.15.1-0.13.12-0.15.12-0.12.15L160,72l-0.12.15-0.1.19-0.08.19-0.08.23-0.06.21-0.06.17,0,0.19,0,0.21,0,0.23,0,0.25,0,0.27,0,0.29,0,0.31,0,0.37,0,0.44,0,0.52,0,0.58,0,0.69v0.77l0,0.83,0,0.92h-3.57l0.06-.67,0.06-.71,0-.69,0.06-.67,0-.71,0-.69,0-.69,0-.71,0-.69,0-.69,0-.71V71.64l0-.71V70.24l0-.69V67.61h3.13l-0.08,1.73,0.12-.27,0.13-.23,0.13-.23,0.13-.21,0.13-.19,0.13-.15,0.15-.15,0.15-.13,0.15-.12,0.15-.1,0.17-.08,0.19-.1,0.19,0,0.19,0,0.21,0h0.63l0.08,0h0v0h0l0.1,3.78h0Zm5.26,3v0h0v1.09l0,0.27,0,0.19,0.06,0.19,0,0.17,0.06,0.15,0.06,0.12,0.06,0.12L168,76.52l0.1,0.08,0.1,0.08,0.12,0,0.13,0,0.12,0h0.36l0.08,0,0.08,0,0.08,0,0.12,0h0l0.06,0h0l0,0h0.1l0,0-0.21,3.44-0.12,0-0.1,0-0.12,0-0.12,0-0.13,0-0.1,0h-0.12l-0.13,0-0.12,0-0.12,0-0.13,0h-0.25l-0.13,0h-0.44l-0.19,0-0.19,0-0.17,0-0.17,0-0.19-.06-0.15,0-0.15-.06L165.77,80,165.64,80l-0.13-.08-0.13-.1-0.12-.1-0.12-.1L165,79.48l-0.1-.12-0.1-.12-0.1-.13L164.66,79l-0.08-.15-0.08-.13-0.08-.17,0-.17-0.08-.17-0.08-.38-0.06-.44,0-.44V76l0.19-5.2H163l0.12-3.19h1.46l0.08-2,3.25-1-0.12,3h2.05l-0.13,3.19h-2l-0.13,3.3h0Zm6.59-1.88h2.36V71.66l0-.21,0-.21,0-.17,0-.17-0.06-.13-0.06-.15-0.08-.12-0.08-.12-0.08-.08-0.1-.1-0.1,0-0.12,0-0.12,0h-0.12l-0.13,0-0.13,0-0.12,0-0.12.06-0.12.08-0.1.1-0.1.12-0.1.13-0.08.15-0.08.15-0.06.17-0.06.19-0.06.21,0,0.23L174.2,72l0,0.23h0Zm4.32,7.6-0.21.06-0.21.06-0.21.06-0.21.06-0.21,0-0.19,0-0.21,0-0.21,0-0.19,0h-0.19l-0.19,0-0.19,0-0.19,0h-0.19l-0.19,0H175l-0.29,0-0.27,0-0.25,0L174,80.19l-0.25-.08L173.45,80,173.24,80,173,79.84l-0.21-.12-0.19-.12-0.21-.15-0.17-.13L172,79.15,171.88,79l-0.17-.17-0.15-.19-0.13-.21-0.13-.23-0.12-.21-0.12-.25-0.1-.25-0.1-.27-0.08-.27-0.08-.29-0.08-.29,0-.29-0.06-.33,0-.33,0-.35,0-.35V73.95l0-.4,0-.4,0-.36,0.06-.37,0-.36,0.08-.33,0.08-.33,0.1-.33,0.1-.31,0.12-.29,0.13-.29,0.12-.27,0.17-.27,0.13-.25,0.17-.25,0.17-.21,0.19-.23,0.19-.19,0.21-.19,0.19-.15L173,68l0.23-.15,0.23-.12,0.23-.12,0.27-.1,0.25-.08,0.27-.08,0.29,0,0.29,0,0.27,0h0.83l0.23,0,0.23,0.06,0.23,0,0.21,0.08,0.21,0.06,0.21,0.06,0.19,0.08,0.17,0.1L178,67.86,178.22,68l0.15,0.12,0.15,0.12,0.13,0.15,0.15,0.15,0.1,0.15L179,68.84,179.16,69l0.1,0.17,0.1,0.19,0.08,0.21,0.08,0.23,0.06,0.23,0.08,0.23,0,0.25,0.06,0.27,0,0.27,0,0.27,0,0.29,0,0.31v0.81l0,0.13v0.29l0,0.13,0,0.15v0.15l0,0.15,0,0.17v0.17l0,0.17,0,0.15,0,0.19h-5.49v0h0v0.13l0,0V75l0,0.25,0,0.23,0,0.21,0.06,0.21,0.08,0.17,0.1,0.15,0.12,0.17,0.13,0.12,0.13,0.12L175,76.75l0.17,0.08,0.21,0.06L175.62,77l0.25,0,0.25,0h0.6l0.13,0H177l0.17,0,0.13,0,0.15,0,0.17,0,0.13,0,0.15,0,0.17,0,0.15,0,0.15,0,0.15-.06,0.17,0,0.15-.06-0.38,3.23h0ZM25.12,79.57L0,79.32V0H117.79l0,79.32L107.69,75l-5.86-7.12-8-11.54-9.56-3.49-4.34,6L72,54.07,61.79,39.65l-10.08-.29-0.19,2.84L35,41.15,15.11,32.07l0-2.09L1.29,29.65,7.43,49.54l8.08,12.14-5.78.5L24.91,74.87l2.28,4.65-2.07.06h0Zm19.57,0L32.57,63.77l-9.37-22-9.6-5.91L15.42,50,28.65,70.3l4.65,9.22Z"/></svg>